{
    "asset" : {
        "generator" : "Khronos glTF Blender I/O v3.4.49",
        "version" : "2.0"
    },
    "extensionsUsed" : [
        "KHR_materials_clearcoat",
        "KHR_materials_transmission",
        "KHR_materials_specular",
        "KHR_materials_ior"
    ],
    "scene" : 0,
    "scenes" : [
        {
            "name" : "Scene",
            "nodes" : [
                0,
                1,
                2,
                3,
                4,
                5
            ]
        }
    ],
    "nodes" : [
        {
            "mesh" : 0,
            "name" : "ceiling_mount",
            "translation" : [
                29.76433563232422,
                0.6345064640045166,
                -5.386085510253906
            ]
        },
        {
            "mesh" : 1,
            "name" : "Screen",
            "rotation" : [
                0,
                0,
                -0.7071065902709961,
                0.7071069478988647
            ],
            "scale" : [
                1.7108051776885986,
                2.035172462463379,
                2.035172700881958
            ],
            "translation" : [
                30.530113220214844,
                0.1111299991607666,
                -5.16389274597168
            ]
        },
        {
            "mesh" : 2,
            "name" : "Circle",
            "scale" : [
                3.400212287902832,
                3.400212287902832,
                3.400212287902832
            ],
            "translation" : [
                30.38711929321289,
                0.011907469481229782,
                -6.910961151123047
            ]
        },
        {
            "mesh" : 3,
            "name" : "Plane.001",
            "rotation" : [
                0,
                -1,
                0,
                1.6292068494294654e-07
            ],
            "scale" : [
                0.6598615050315857,
                1,
                1
            ],
            "translation" : [
                31.126155853271484,
                8.865089416503906,
                -7.193634033203125
            ]
        },
        {
            "mesh" : 4,
            "name" : "Aset_nature_tree_L_wdoicd0_00_LOD2",
            "rotation" : [
                0.4999999403953552,
                -0.5,
                -0.5000000596046448,
                0.5
            ],
            "scale" : [
                0.012331333942711353,
                0.012331333942711353,
                0.012331333942711353
            ],
            "translation" : [
                30.922950744628906,
                8.574392318725586,
                -7.162805557250977
            ]
        },
        {
            "mesh" : 5,
            "name" : "polySurface2_cordon_0",
            "rotation" : [
                -0.6580086946487427,
                -0.1044120341539383,
                -0.055750489234924316,
                0.7436494827270508
            ],
            "scale" : [
                0.020527126267552376,
                0.020527129992842674,
                0.020527128130197525
            ],
            "translation" : [
                22.241952896118164,
                0.7363277077674866,
                -6.438293933868408
            ]
        }
    ],
    "materials" : [
        {
            "doubleSided" : true,
            "name" : "blanco",
            "pbrMetallicRoughness" : {
                "baseColorFactor" : [
                    0.10394690930843353,
                    0.10394690930843353,
                    0.10394690930843353,
                    1
                ],
                "metallicFactor" : 0,
                "roughnessFactor" : 0.4693148732185364
            }
        },
        {
            "doubleSided" : true,
            "extensions" : {
                "KHR_materials_clearcoat" : {
                    "clearcoatFactor" : 0.05438065528869629,
                    "clearcoatRoughnessFactor" : 0.08438065648078918
                },
                "KHR_materials_transmission" : {
                    "transmissionFactor" : 0.05438065528869629
                },
                "KHR_materials_specular" : {
                    "specularColorFactor" : [
                        1.2975247422579541,
                        1.2975247422579541,
                        1.2975247422579541
                    ]
                },
                "KHR_materials_ior" : {
                    "ior" : 1.4500000476837158
                }
            },
            "name" : "wire",
            "pbrMetallicRoughness" : {
                "metallicFactor" : 0.05438065528869629,
                "roughnessFactor" : 0.45438066124916077
            }
        },
        {
            "doubleSided" : true,
            "emissiveFactor" : [
                1,
                1,
                1
            ],
            "emissiveTexture" : {
                "index" : 0
            },
            "extensions" : {
                "KHR_materials_specular" : {
                    "specularColorTexture" : {
                        "index" : 1
                    }
                },
                "KHR_materials_ior" : {
                    "ior" : 1.4500000476837158
                }
            },
            "name" : "Batopia",
            "pbrMetallicRoughness" : {
                "baseColorTexture" : {
                    "index" : 2
                },
                "metallicFactor" : 0,
                "roughnessFactor" : 0.16363635659217834
            }
        },
        {
            "doubleSided" : true,
            "name" : "mirror",
            "pbrMetallicRoughness" : {}
        },
        {
            "doubleSided" : true,
            "name" : "fabric",
            "pbrMetallicRoughness" : {
                "baseColorTexture" : {
                    "index" : 3
                },
                "metallicFactor" : 0,
                "roughnessFactor" : 0.5
            }
        },
        {
            "doubleSided" : true,
            "name" : "default_material",
            "pbrMetallicRoughness" : {
                "baseColorTexture" : {
                    "index" : 4
                },
                "metallicFactor" : 0,
                "roughnessFactor" : 0.5527864098548889
            }
        },
        {
            "doubleSided" : true,
            "extensions" : {
                "KHR_materials_specular" : {
                    "specularColorFactor" : [
                        0.31905536653776995,
                        0.31905536653776995,
                        0.31905536653776995
                    ]
                },
                "KHR_materials_ior" : {
                    "ior" : 1.4500000476837158
                }
            },
            "name" : "Material.001",
            "pbrMetallicRoughness" : {
                "baseColorTexture" : {
                    "index" : 5,
                    "texCoord" : 1
                },
                "metallicFactor" : 0,
                "roughnessFactor" : 0.8272727131843567
            }
        }
    ],
    "meshes" : [
        {
            "name" : "Cylinder",
            "primitives" : [
                {
                    "attributes" : {
                        "POSITION" : 0,
                        "TEXCOORD_0" : 1,
                        "TEXCOORD_1" : 2,
                        "TEXCOORD_2" : 3,
                        "NORMAL" : 4
                    },
                    "indices" : 5,
                    "material" : 0
                },
                {
                    "attributes" : {
                        "POSITION" : 6,
                        "TEXCOORD_0" : 7,
                        "TEXCOORD_1" : 8,
                        "TEXCOORD_2" : 9,
                        "NORMAL" : 10
                    },
                    "indices" : 11,
                    "material" : 1
                }
            ]
        },
        {
            "name" : "Plane",
            "primitives" : [
                {
                    "attributes" : {
                        "POSITION" : 12,
                        "TEXCOORD_0" : 13,
                        "NORMAL" : 14
                    },
                    "indices" : 15,
                    "material" : 2
                }
            ]
        },
        {
            "name" : "Circle",
            "primitives" : [
                {
                    "attributes" : {
                        "POSITION" : 16,
                        "TEXCOORD_0" : 17,
                        "NORMAL" : 18
                    },
                    "indices" : 19,
                    "material" : 3
                }
            ]
        },
        {
            "name" : "Plane.003",
            "primitives" : [
                {
                    "attributes" : {
                        "POSITION" : 20,
                        "TEXCOORD_0" : 21,
                        "NORMAL" : 22
                    },
                    "indices" : 23,
                    "material" : 4
                }
            ]
        },
        {
            "name" : "Aset_nature_tree_L_wdoicd0_00_LOD2",
            "primitives" : [
                {
                    "attributes" : {
                        "POSITION" : 24,
                        "TEXCOORD_0" : 25,
                        "NORMAL" : 26
                    },
                    "indices" : 27,
                    "material" : 5
                }
            ]
        },
        {
            "name" : "polySurface2_cordon_0",
            "primitives" : [
                {
                    "attributes" : {
                        "COLOR_0" : 28,
                        "POSITION" : 29,
                        "TEXCOORD_0" : 30,
                        "TEXCOORD_1" : 31,
                        "NORMAL" : 32
                    },
                    "indices" : 33,
                    "material" : 6
                }
            ]
        }
    ],
    "textures" : [
        {
            "sampler" : 0,
            "source" : 0
        },
        {
            "sampler" : 0,
            "source" : 1
        },
        {
            "sampler" : 0,
            "source" : 0
        },
        {
            "sampler" : 0,
            "source" : 2
        },
        {
            "sampler" : 0,
            "source" : 3
        },
        {
            "sampler" : 0,
            "source" : 4
        }
    ],
    "images" : [
        {
            "mimeType" : "image/jpeg",
            "name" : "Plain",
            "uri" : "Plain.jpg"
        },
        {
            "mimeType" : "image/png",
            "name" : "Image",
            "uri" : "Image.png"
        },
        {
            "mimeType" : "image/jpeg",
            "name" : "Fabric030_2K-JPG_Color",
            "uri" : "Fabric030_2K-JPG_Color.jpg"
        },
        {
            "mimeType" : "image/jpeg",
            "name" : "xielaej_2K_Albedo",
            "uri" : "xielaej_2K_Albedo.jpg"
        },
        {
            "mimeType" : "image/png",
            "name" : "NewCombined",
            "uri" : "NewCombined.png"
        }
    ],
    "accessors" : [
        {
            "bufferView" : 0,
            "componentType" : 5126,
            "count" : 4831,
            "max" : [
                2.9023141860961914,
                9.966096878051758,
                -1.5914254188537598
            ],
            "min" : [
                -0.23477114737033844,
                9.259204864501953,
                -2.099111318588257
            ],
            "type" : "VEC3"
        },
        {
            "bufferView" : 1,
            "componentType" : 5126,
            "count" : 4831,
            "type" : "VEC2"
        },
        {
            "bufferView" : 2,
            "componentType" : 5126,
            "count" : 4831,
            "type" : "VEC2"
        },
        {
            "bufferView" : 3,
            "componentType" : 5126,
            "count" : 4831,
            "type" : "VEC2"
        },
        {
            "bufferView" : 4,
            "componentType" : 5126,
            "count" : 4831,
            "type" : "VEC3"
        },
        {
            "bufferView" : 5,
            "componentType" : 5123,
            "count" : 6480,
            "type" : "SCALAR"
        },
        {
            "bufferView" : 6,
            "componentType" : 5126,
            "count" : 435,
            "max" : [
                2.665311098098755,
                9.599668502807617,
                -1.8158273696899414
            ],
            "min" : [
                -0.01628541201353073,
                7.964865684509277,
                -1.8158273696899414
            ],
            "type" : "VEC3"
        },
        {
            "bufferView" : 7,
            "componentType" : 5126,
            "count" : 435,
            "type" : "VEC2"
        },
        {
            "bufferView" : 8,
            "componentType" : 5126,
            "count" : 435,
            "type" : "VEC2"
        },
        {
            "bufferView" : 9,
            "componentType" : 5126,
            "count" : 435,
            "type" : "VEC2"
        },
        {
            "bufferView" : 10,
            "componentType" : 5126,
            "count" : 435,
            "type" : "VEC3"
        },
        {
            "bufferView" : 11,
            "componentType" : 5123,
            "count" : 564,
            "type" : "SCALAR"
        },
        {
            "bufferView" : 12,
            "componentType" : 5126,
            "count" : 32,
            "max" : [
                5.960464477539063e-08,
                0.06226160377264023,
                0.533827543258667
            ],
            "min" : [
                -2,
                -7.264316082000732e-08,
                -2.533827066421509
            ],
            "type" : "VEC3"
        },
        {
            "bufferView" : 13,
            "componentType" : 5126,
            "count" : 32,
            "type" : "VEC2"
        },
        {
            "bufferView" : 14,
            "componentType" : 5126,
            "count" : 32,
            "type" : "VEC3"
        },
        {
            "bufferView" : 15,
            "componentType" : 5123,
            "count" : 36,
            "type" : "SCALAR"
        },
        {
            "bufferView" : 16,
            "componentType" : 5126,
            "count" : 44,
            "max" : [
                1,
                0,
                1.3132452964782715
            ],
            "min" : [
                -1.5283409357070923,
                0,
                -0.9807852506637573
            ],
            "type" : "VEC3"
        },
        {
            "bufferView" : 17,
            "componentType" : 5126,
            "count" : 44,
            "type" : "VEC2"
        },
        {
            "bufferView" : 18,
            "componentType" : 5126,
            "count" : 44,
            "type" : "VEC3"
        },
        {
            "bufferView" : 19,
            "componentType" : 5123,
            "count" : 90,
            "type" : "SCALAR"
        },
        {
            "bufferView" : 20,
            "componentType" : 5126,
            "count" : 754,
            "max" : [
                2.159348487854004,
                -0.07193654030561447,
                6.5118584632873535
            ],
            "min" : [
                -1.962750792503357,
                -8.902953147888184,
                -6.488858699798584
            ],
            "type" : "VEC3"
        },
        {
            "bufferView" : 21,
            "componentType" : 5126,
            "count" : 754,
            "type" : "VEC2"
        },
        {
            "bufferView" : 22,
            "componentType" : 5126,
            "count" : 754,
            "type" : "VEC3"
        },
        {
            "bufferView" : 23,
            "componentType" : 5123,
            "count" : 4248,
            "type" : "SCALAR"
        },
        {
            "bufferView" : 24,
            "componentType" : 5126,
            "count" : 428,
            "max" : [
                8.834016799926758,
                10.324599266052246,
                106.93858337402344
            ],
            "min" : [
                -12.886995315551758,
                -20.77399444580078,
                -124.87152099609375
            ],
            "type" : "VEC3"
        },
        {
            "bufferView" : 25,
            "componentType" : 5126,
            "count" : 428,
            "type" : "VEC2"
        },
        {
            "bufferView" : 26,
            "componentType" : 5126,
            "count" : 428,
            "type" : "VEC3"
        },
        {
            "bufferView" : 27,
            "componentType" : 5123,
            "count" : 1386,
            "type" : "SCALAR"
        },
        {
            "bufferView" : 28,
            "componentType" : 5123,
            "count" : 30226,
            "normalized" : true,
            "type" : "VEC4"
        },
        {
            "bufferView" : 29,
            "componentType" : 5126,
            "count" : 30226,
            "max" : [
                581.745849609375,
                478.12921142578125,
                74.84159851074219
            ],
            "min" : [
                -1006.2673950195312,
                -381.7217712402344,
                -118.74358367919922
            ],
            "type" : "VEC3"
        },
        {
            "bufferView" : 30,
            "componentType" : 5126,
            "count" : 30226,
            "type" : "VEC2"
        },
        {
            "bufferView" : 31,
            "componentType" : 5126,
            "count" : 30226,
            "type" : "VEC2"
        },
        {
            "bufferView" : 32,
            "componentType" : 5126,
            "count" : 30226,
            "type" : "VEC3"
        },
        {
            "bufferView" : 33,
            "componentType" : 5123,
            "count" : 68232,
            "type" : "SCALAR"
        }
    ],
    "bufferViews" : [
        {
            "buffer" : 0,
            "byteLength" : 57972,
            "byteOffset" : 0,
            "target" : 34962
        },
        {
            "buffer" : 0,
            "byteLength" : 38648,
            "byteOffset" : 57972,
            "target" : 34962
        },
        {
            "buffer" : 0,
            "byteLength" : 38648,
            "byteOffset" : 96620,
            "target" : 34962
        },
        {
            "buffer" : 0,
            "byteLength" : 38648,
            "byteOffset" : 135268,
            "target" : 34962
        },
        {
            "buffer" : 0,
            "byteLength" : 57972,
            "byteOffset" : 173916,
            "target" : 34962
        },
        {
            "buffer" : 0,
            "byteLength" : 12960,
            "byteOffset" : 231888,
            "target" : 34963
        },
        {
            "buffer" : 0,
            "byteLength" : 5220,
            "byteOffset" : 244848,
            "target" : 34962
        },
        {
            "buffer" : 0,
            "byteLength" : 3480,
            "byteOffset" : 250068,
            "target" : 34962
        },
        {
            "buffer" : 0,
            "byteLength" : 3480,
            "byteOffset" : 253548,
            "target" : 34962
        },
        {
            "buffer" : 0,
            "byteLength" : 3480,
            "byteOffset" : 257028,
            "target" : 34962
        },
        {
            "buffer" : 0,
            "byteLength" : 5220,
            "byteOffset" : 260508,
            "target" : 34962
        },
        {
            "buffer" : 0,
            "byteLength" : 1128,
            "byteOffset" : 265728,
            "target" : 34963
        },
        {
            "buffer" : 0,
            "byteLength" : 384,
            "byteOffset" : 266856,
            "target" : 34962
        },
        {
            "buffer" : 0,
            "byteLength" : 256,
            "byteOffset" : 267240,
            "target" : 34962
        },
        {
            "buffer" : 0,
            "byteLength" : 384,
            "byteOffset" : 267496,
            "target" : 34962
        },
        {
            "buffer" : 0,
            "byteLength" : 72,
            "byteOffset" : 267880,
            "target" : 34963
        },
        {
            "buffer" : 0,
            "byteLength" : 528,
            "byteOffset" : 267952,
            "target" : 34962
        },
        {
            "buffer" : 0,
            "byteLength" : 352,
            "byteOffset" : 268480,
            "target" : 34962
        },
        {
            "buffer" : 0,
            "byteLength" : 528,
            "byteOffset" : 268832,
            "target" : 34962
        },
        {
            "buffer" : 0,
            "byteLength" : 180,
            "byteOffset" : 269360,
            "target" : 34963
        },
        {
            "buffer" : 0,
            "byteLength" : 9048,
            "byteOffset" : 269540,
            "target" : 34962
        },
        {
            "buffer" : 0,
            "byteLength" : 6032,
            "byteOffset" : 278588,
            "target" : 34962
        },
        {
            "buffer" : 0,
            "byteLength" : 9048,
            "byteOffset" : 284620,
            "target" : 34962
        },
        {
            "buffer" : 0,
            "byteLength" : 8496,
            "byteOffset" : 293668,
            "target" : 34963
        },
        {
            "buffer" : 0,
            "byteLength" : 5136,
            "byteOffset" : 302164,
            "target" : 34962
        },
        {
            "buffer" : 0,
            "byteLength" : 3424,
            "byteOffset" : 307300,
            "target" : 34962
        },
        {
            "buffer" : 0,
            "byteLength" : 5136,
            "byteOffset" : 310724,
            "target" : 34962
        },
        {
            "buffer" : 0,
            "byteLength" : 2772,
            "byteOffset" : 315860,
            "target" : 34963
        },
        {
            "buffer" : 0,
            "byteLength" : 241808,
            "byteOffset" : 318632,
            "target" : 34962
        },
        {
            "buffer" : 0,
            "byteLength" : 362712,
            "byteOffset" : 560440,
            "target" : 34962
        },
        {
            "buffer" : 0,
            "byteLength" : 241808,
            "byteOffset" : 923152,
            "target" : 34962
        },
        {
            "buffer" : 0,
            "byteLength" : 241808,
            "byteOffset" : 1164960,
            "target" : 34962
        },
        {
            "buffer" : 0,
            "byteLength" : 362712,
            "byteOffset" : 1406768,
            "target" : 34962
        },
        {
            "buffer" : 0,
            "byteLength" : 136464,
            "byteOffset" : 1769480,
            "target" : 34963
        }
    ],
    "samplers" : [
        {
            "magFilter" : 9729,
            "minFilter" : 9987
        }
    ],
    "buffers" : [
        {
            "byteLength" : 1905944,
            "uri" : "updatedmoss710.bin"
        }
    ]
}
